PathFileType	4	(X/Y/Z)	26_2_90_p0_0-429.trc
DataRate	CameraRate	NumFrames	NumMarkers	Units	OrigDataRate	OrigDataStartFrame	OrigNumFrames
60.0	60.0	5	27	m	60.0	107	430
Frame#	Time	RHip			RKnee			RAnkle			RBigToe			RSmallToe			RHeel			LHip			LKnee			LAnkle			LBigToe			LSmallToe			LHeel			Neck			Head			Nose			RShoulder			RElbow			RWrist			RThumb			RIndex			RPinky			LShoulder			LElbow			LWrist			LThumb			LIndex			LPinky			
		X1	Y1	Z1	X2	Y2	Z2	X3	Y3	Z3	X4	Y4	Z4	X5	Y5	Z5	X6	Y6	Z6	X7	Y7	Z7	X8	Y8	Z8	X9	Y9	Z9	X10	Y10	Z10	X11	Y11	Z11	X12	Y12	Z12	X13	Y13	Z13	X14	Y14	Z14	X15	Y15	Z15	X16	Y16	Z16	X17	Y17	Z17	X18	Y18	Z18	X19	Y19	Z19	X20	Y20	Z20	X21	Y21	Z21	X22	Y22	Z22	X23	Y23	Z23	X24	Y24	Z24	X25	Y25	Z25	X26	Y26	Z26	X27	Y27	Z27	
107	1.7833333333333334	0.3097238824165685	0.783023879281468	0.8276356482579365	0.2679801377297604	0.8935685797203159	1.2445933611826336	0.27755434492062403	1.2057741156681927	1.6578817507773709	0.23604928132473066	0.9993074866456486	1.7116586703375065	0.29322500092489756	1.0277438825537946	1.712001900050955	0.26893607215470783	1.3351948547772479	1.6908525687658418	0.1101510244581251	0.8266930988411616	0.8366853927645452	0.12801808823780023	0.8809487331912434	1.2433342463531385	0.08882263397872148	1.1950786308578574	1.6562370665597241	0.08193187299540318	1.0321140460999294	1.7072571046837368	0.03834648478095826	1.0662394972967693	1.698888092666429	0.10500155750533664	1.2611312047031267	1.6859278705234073	0.16181939929333847	0.4428463319088722	0.47208273218003993	0.13274491080108847	0.1952571523927132	0.2950964851568286	0.1259936459967825	0.2528172131057104	0.44636395294769016	0.3134802845291018	0.419828212194242	0.48655286173462425	0.2733403225959278	0.5231201657487087	0.7158553685856385	0.1826912277318667	0.3436054942381983	0.6156263619941876	0.14194963177142528	0.2807232262091412	0.5260726950073169	0.151963851529866	0.2639733515167137	0.5290436631548383	0.10629365859181647	0.21228562298375933	0.613139393241362	0.015733305484116628	0.5079138193449886	0.4734925716990264	0.029065341214477344	0.5228395368248543	0.7383883920144092	0.07466505080697748	0.4163384172043973	0.6063715722737988	0.09984110184047859	0.3316776274897942	0.5309602771216678	0.08740796693220748	0.26607215299657055	0.5278317828391493	0.07645999187030324	0.26004684121916277	0.5915222056813543
108	1.8	0.3098340022042142	0.7825972618206122	0.8272548651630969	0.26788564031135426	0.893296666968236	1.2446882274968514	0.2774268368811792	1.2064022563717218	1.6539210185935993	0.23547960956761954	1.002731026162049	1.7163152443520682	0.2935032829337648	1.028855118645925	1.7078807627935917	0.26958637300065025	1.3358821022422191	1.6913270636985467	0.11738743150858189	0.8529414647505218	0.8297014383476884	0.12730806877194162	0.8777189673921548	1.2391107095367933	0.08505767667396967	1.17881290145875	1.6537063004419161	0.08183440939680399	1.0322741053568816	1.7074358541715557	0.033899979364484224	1.0844666467740203	1.701832549126108	0.10514641531745411	1.2606952068538724	1.6811155323421931	0.16183992404957087	0.44311755181433843	0.472198370458427	0.13294058410102783	0.19750408722733567	0.29823525478961693	0.12233485631556235	0.26579267651184285	0.4468947524513707	0.31351831737112507	0.42006483120454574	0.4865829656500048	0.2865296707934231	0.5328279733398124	0.7292499588913847	0.18285061899013388	0.3425644114651675	0.6179002529209137	0.13829608467981955	0.3146666491103005	0.5178902475722551	0.14297669688594797	0.23881405473057285	0.5314338142043683	0.10733394050371184	0.20751126167288136	0.5980940038440414	0.019075789096685274	0.5189985125716051	0.4706477248338407	0.029223264161442115	0.523237111276224	0.7414522221024181	0.07418716486987353	0.4017149422938081	0.6048432659448085	0.0962193685527944	0.3433821969052841	0.5244735871111471	0.08750160010447346	0.28691193648873853	0.5225186059219191	0.08025170219601571	0.2571069328212404	0.5783254211469432
109	1.8166666666666667	0.30951148671805206	0.7691579110785708	0.8285570799571976	0.2634407201514481	0.8788024967577357	1.2442425605676841	0.273869609965075	1.2259197745871968	1.6609609652973252	0.23896561072917935	1.0158851314242456	1.7185347096297054	0.2935598907820141	1.0282307582944668	1.7120955423320228	0.2648249983166225	1.3349051934317802	1.6909109327093153	0.10599435627567513	0.8136541368477305	0.8417181403682905	0.12721778797647637	0.8772558154394539	1.2393308747506897	0.08493106409492074	1.1788622945202263	1.653765277393807	0.08261103881899855	1.036119159732295	1.7117303962526742	0.03385093890874512	1.0841816035847573	1.7018738703905036	0.1047522752357129	1.2597054938014989	1.6809497226268795	0.16186759361057435	0.44356284083791975	0.47247159031447133	0.1330252575168634	0.19804342929884083	0.3012061447707363	0.12253790348799391	0.266102217211216	0.4470081207566987	0.3108258132581352	0.43264950972345	0.4834812305309718	0.28420700725557535	0.5038345333736047	0.7304472895928331	0.18264533864195223	0.34238841560931166	0.617546398483644	0.13805816328644585	0.3252733809181019	0.5122084521547097	0.1468066731719616	0.2588628925696113	0.5271781702373515	0.11267911754040706	0.2154766918264668	0.5911224441725768	0.015737225166819618	0.520436186241108	0.47762014758599913	0.03288560622394158	0.5241669811020576	0.7415443676431738	0.07380321667878094	0.4012735034737776	0.6014306551897707	0.09620336037855166	0.3432493621217614	0.5241446840878357	0.08996379040449949	0.2938251412720342	0.5145146263644336	0.07644212343226309	0.2672016828881996	0.5729969117903667
110	1.8333333333333333	0.31399524255135014	0.7827564951909866	0.8272500880290281	0.2634859559830937	0.8788110151740298	1.2441793470348625	0.27742558065222056	1.2064195215980882	1.6538029826397287	0.23993714830340976	1.0132863812205621	1.7140042272365479	0.29327198575688385	1.0285902571140348	1.7077800432615926	0.26486511714682826	1.334987394827693	1.6912229334993238	0.10981784026481811	0.8234384733131185	0.8331368771331201	0.12645696123838496	0.8791374439492936	1.2432351903751095	0.086189490867984	1.176111477904303	1.6491107165101346	0.08185199523575466	1.0320485641325021	1.707583011674841	0.034043856340809794	1.0839456554329572	1.7018413617599215	0.10476427763891508	1.2602505926510266	1.6809571304223403	0.16193254041895208	0.443484084977589	0.47265279402810206	0.13297660358986194	0.19803404260666155	0.3011889602403422	0.11904669046208803	0.2765656057697858	0.44415851520818495	0.313442907044072	0.4201622796953139	0.48656498761648403	0.2769302345411171	0.5138471663170865	0.7246316820464281	0.1791802305075893	0.3529468254603843	0.6087854675912449	0.13779004212914833	0.3244183865722761	0.512177777516474	0.14650632897082366	0.25729565455258635	0.5240401290969228	0.1260967295002052	0.21630318082350689	0.578817584416616	0.019726115023889726	0.5226683656670302	0.47712690834481136	0.0258106999531576	0.5115480520127	0.7467453246939311	0.0775029957092497	0.4126143735419392	0.602509049572399	0.09637277590187329	0.34306650085505747	0.5238577271912336	0.08994044181212393	0.29355376583320464	0.5145797461714846	0.07966577780360809	0.2569202665091788	0.5753105392155478
111	1.85	0.3135301284706631	0.7835495432120813	0.8303756298726834	0.26267681289214184	0.8800137637825989	1.2480140067437107	0.27750748037061157	1.2063077096637935	1.6537691638852905	0.235508378741367	1.0030361367209362	1.7164211720520615	0.29365594845928533	1.0293215465859238	1.707887587560961	0.26000740305731707	1.3171358643915156	1.688504647493723	0.10931931781333008	0.8243041604716187	0.8366995160761371	0.1273507960612241	0.8773457058773908	1.2391781936293507	0.08620761090105104	1.1762143742242712	1.6491524617299447	0.08359196224451429	1.0334074112512646	1.707718637794073	0.0341535339178521	1.0846304958820514	1.70220351717072	0.10466679875181643	1.2607256787908818	1.6810506210788332	0.16183364806797473	0.4434748959416617	0.47263284890237045	0.13304628029166232	0.20015523953075612	0.30452473718911116	0.11894970299208385	0.27686628480701403	0.44412099000279415	0.3133873889671396	0.42020277084346414	0.4868589327099003	0.27341445951250726	0.48143937369611617	0.7202776747727898	0.17485525689785106	0.34191827061053226	0.6113018005090892	0.13383679807379467	0.32234490524185344	0.5127438340878453	0.14518828004040046	0.24391147102329858	0.527299800490946	0.11107822853522434	0.21025658780857298	0.5825081245778835	0.019671931824375825	0.5227304852931229	0.47740449202102175	0.029338863524239	0.5123044581585271	0.746857016326774	0.06648426881104658	0.4117888960672879	0.5995100893594681	0.09563486797943835	0.32871953120687664	0.5236646062093144	0.08440051045553766	0.2760455599586072	0.5213982060622221	0.08056426427993538	0.25755768347075764	0.5771542704514875
